<svg version="1.1" viewBox="0.0 0.0 960.0 720.0" fill="none" stroke="none" stroke-linecap="square" stroke-miterlimit="10" xmlns:xlink="http://www.w3.org/1999/xlink" xmlns="http://www.w3.org/2000/svg"><clipPath id="p.0"><path d="m0 0l960.0 0l0 720.0l-960.0 0l0 -720.0z" clip-rule="nonzero"/></clipPath><g clip-path="url(#p.0)"><path fill="#20124d" d="m0 0l960.0 0l0 720.0l-960.0 0z" fill-rule="evenodd"/><path fill="#ffff00" d="m105.43044 152.35957l8.3622055 -10.929123l8.3622055 10.929123l-8.3622055 10.929138z" fill-rule="evenodd"/><path fill="#ffffff" d="m268.7139 201.2126l0 0c0 -1.7742767 2.0164795 -3.2126007 4.503937 -3.2126007l0 0c2.4874573 0 4.503937 1.438324 4.503937 3.2126007l0 0c0 1.7742615 -2.0164795 3.2126007 -4.503937 3.2126007l0 0c-2.4874573 0 -4.503937 -1.4383392 -4.503937 -3.2126007z" fill-rule="evenodd"/><path fill="#0000ff" d="m177.43045 336.3596l8.362198 -10.929138l8.362213 10.929138l-8.362213 10.929138z" fill-rule="evenodd"/><path fill="#00ffff" d="m329.43045 286.72177l4.503937 -9.291321l4.503937 9.291321l-4.503937 9.291351z" fill-rule="evenodd"/><path fill="#ffff00" d="m187.0 433.21783l8.362198 -10.929108l8.362213 10.929108l-8.362213 10.929138z" fill-rule="evenodd"/><path fill="#00ffff" d="m353.43045 78.72179l4.503937 -9.291344l4.503937 9.291344l-4.503937 9.291336z" fill-rule="evenodd"/><path fill="#0000ff" d="m593.4304 200.35957l8.362244 -10.929123l8.362183 10.929123l-8.362183 10.929138z" fill-rule="evenodd"/><path fill="#ffff00" d="m547.0 425.21783l8.362183 -10.929108l8.362244 10.929108l-8.362244 10.929138z" fill-rule="evenodd"/><path fill="#ffffff" d="m324.7139 393.2126l0 0c0 -1.7742615 2.0164795 -3.2125854 4.503937 -3.2125854l0 0c2.4874573 0 4.503937 1.438324 4.503937 3.2125854l0 0c0 1.774292 -2.0164795 3.212616 -4.503937 3.212616l0 0c-2.4874573 0 -4.503937 -1.438324 -4.503937 -3.212616z" fill-rule="evenodd"/><path fill="#ffffff" d="m508.7139 289.2126l0 0c0 -1.7742615 2.0164795 -3.2125854 4.503937 -3.2125854l0 0c2.4874878 0 4.5039673 1.438324 4.5039673 3.2125854l0 0c0 1.774292 -2.0164795 3.212616 -4.5039673 3.212616l0 0c-2.4874573 0 -4.503937 -1.438324 -4.503937 -3.212616z" fill-rule="evenodd"/><path fill="#ffffff" d="m92.71391 305.2126l0 0c0 -1.7742615 2.0164795 -3.2125854 4.503937 -3.2125854l0 0c2.4874573 0 4.503937 1.438324 4.503937 3.2125854l0 0c0 1.774292 -2.0164795 3.212616 -4.503937 3.212616l0 0c-2.4874573 0 -4.503937 -1.438324 -4.503937 -3.212616z" fill-rule="evenodd"/><path fill="#ffffff" d="m708.7139 249.2126l0 0c0 -1.7742767 2.0164795 -3.2126007 4.5039062 -3.2126007l0 0c2.4874878 0 4.5039673 1.438324 4.5039673 3.2126007l0 0c0 1.7742615 -2.0164795 3.2126007 -4.5039673 3.2126007l0 0c-2.4874268 0 -4.5039062 -1.4383392 -4.5039062 -3.2126007z" fill-rule="evenodd"/><path fill="#ffffff" d="m500.7139 113.2126l0 0c0 -1.7742691 2.0164795 -3.2126007 4.503937 -3.2126007l0 0c2.4874573 0 4.503937 1.4383316 4.503937 3.2126007l0 0c0 1.7742691 -2.0164795 3.212593 -4.503937 3.212593l0 0c-2.4874573 0 -4.503937 -1.438324 -4.503937 -3.212593z" fill-rule="evenodd"/><path fill="#ffffff" d="m516.7139 145.2126l0 0c0 -1.7742767 2.0164795 -3.2126007 4.5039062 -3.2126007l0 0c2.4874878 0 4.5039673 1.438324 4.5039673 3.2126007l0 0c0 1.7742615 -2.0164795 3.2126007 -4.5039673 3.2126007l0 0c-2.4874268 0 -4.5039062 -1.4383392 -4.5039062 -3.2126007z" fill-rule="evenodd"/><path fill="#ffffff" d="m404.7139 569.2126l0 0c0 -1.774231 2.0164795 -3.2125854 4.503937 -3.2125854l0 0c2.4874573 0 4.503937 1.4383545 4.503937 3.2125854l0 0c0 1.774292 -2.0164795 3.2125854 -4.503937 3.2125854l0 0c-2.4874573 0 -4.503937 -1.4382935 -4.503937 -3.2125854z" fill-rule="evenodd"/><path fill="#ffffff" d="m700.7139 497.2126l0 0c0 -1.7742615 2.0164795 -3.2125854 4.5039062 -3.2125854l0 0c2.4874878 0 4.5039673 1.438324 4.5039673 3.2125854l0 0c0 1.774292 -2.0164795 3.212616 -4.5039673 3.212616l0 0c-2.4874268 0 -4.5039062 -1.438324 -4.5039062 -3.212616z" fill-rule="evenodd"/><path fill="#ffffff" d="m836.7139 145.2126l0 0c0 -1.7742767 2.0164795 -3.2126007 4.5039062 -3.2126007l0 0c2.4874878 0 4.5039673 1.438324 4.5039673 3.2126007l0 0c0 1.7742615 -2.0164795 3.2126007 -4.5039673 3.2126007l0 0c-2.4874268 0 -4.5039062 -1.4383392 -4.5039062 -3.2126007z" fill-rule="evenodd"/><path fill="#ffffff" d="m852.7139 393.2126l0 0c0 -1.7742615 2.0164795 -3.2125854 4.5039062 -3.2125854l0 0c2.4874878 0 4.5039673 1.438324 4.5039673 3.2125854l0 0c0 1.774292 -2.0164795 3.212616 -4.5039673 3.212616l0 0c-2.4874268 0 -4.5039062 -1.438324 -4.5039062 -3.212616z" fill-rule="evenodd"/><path fill="#ffffff" d="m748.7139 489.2126l0 0c0 -1.7742615 2.0164795 -3.2125854 4.5039062 -3.2125854l0 0c2.4874878 0 4.5039673 1.438324 4.5039673 3.2125854l0 0c0 1.774292 -2.0164795 3.212616 -4.5039673 3.212616l0 0c-2.4874268 0 -4.5039062 -1.438324 -4.5039062 -3.212616z" fill-rule="evenodd"/><path fill="#ffffff" d="m524.7139 465.2126l0 0c0 -1.7742615 2.0164795 -3.2125854 4.5039062 -3.2125854l0 0c2.4874878 0 4.5039673 1.438324 4.5039673 3.2125854l0 0c0 1.774292 -2.0164795 3.212616 -4.5039673 3.212616l0 0c-2.4874268 0 -4.5039062 -1.438324 -4.5039062 -3.212616z" fill-rule="evenodd"/><path fill="#ffffff" d="m172.71391 633.2126l0 0c0 -1.774231 2.0164795 -3.2125854 4.503937 -3.2125854l0 0c2.4874573 0 4.503937 1.4383545 4.503937 3.2125854l0 0c0 1.774292 -2.0164795 3.2125854 -4.503937 3.2125854l0 0c-2.4874573 0 -4.503937 -1.4382935 -4.503937 -3.2125854z" fill-rule="evenodd"/><path fill="#ffffff" d="m188.71391 649.2126l0 0c0 -1.774231 2.0164795 -3.2125854 4.503937 -3.2125854l0 0c2.4874573 0 4.503937 1.4383545 4.503937 3.2125854l0 0c0 1.774292 -2.0164795 3.2125854 -4.503937 3.2125854l0 0c-2.4874573 0 -4.503937 -1.4382935 -4.503937 -3.2125854z" fill-rule="evenodd"/><path fill="#ffff00" d="m330.71652 570.85565l4.503937 -9.291321l4.503937 9.291321l-4.503937 9.291321z" fill-rule="evenodd"/><path fill="#00ffff" d="m417.43045 464.3596l8.362213 -10.929138l8.362183 10.929138l-8.362183 10.929138z" fill-rule="evenodd"/><path fill="#ffff00" d="m603.0 289.21783l8.362183 -10.929108l8.362244 10.929108l-8.362244 10.929138z" fill-rule="evenodd"/><path fill="#0000ff" d="m593.4304 573.79266l13.149658 -16.362244l13.149597 16.362244l-13.149597 16.362183z" fill-rule="evenodd"/><path fill="#ffffff" d="m636.7139 609.2126l0 0c0 -1.774231 2.0164795 -3.2125854 4.5039062 -3.2125854l0 0c2.4874878 0 4.5039673 1.4383545 4.5039673 3.2125854l0 0c0 1.774292 -2.0164795 3.2125854 -4.5039673 3.2125854l0 0c-2.4874268 0 -4.5039062 -1.4382935 -4.5039062 -3.2125854z" fill-rule="evenodd"/><path fill="#0000ff" d="m851.00525 629.79266l8.362183 -16.362244l8.362244 16.362244l-8.362244 16.362183z" fill-rule="evenodd"/><path fill="#ffff00" d="m475.0 665.50134l4.503937 -3.2126465l4.503937 3.2126465l-4.503937 3.2125854z" fill-rule="evenodd"/><path fill="#00ffff" d="m89.43044 486.72177l4.503937 -9.291321l4.5039444 9.291321l-4.5039444 9.291351z" fill-rule="evenodd"/><path fill="#00ffff" d="m673.4304 366.72177l4.5039673 -9.291321l4.5039062 9.291321l-4.5039062 9.291351z" fill-rule="evenodd"/><path fill="#00ffff" d="m793.4304 136.35957l8.362244 -10.929131l8.362183 10.929131l-8.362183 10.929138z" fill-rule="evenodd"/><path fill="#ffffff" d="m812.7139 89.2126l0 0c0 -1.7742691 2.0164795 -3.2126007 4.5039062 -3.2126007l0 0c2.4874878 0 4.5039673 1.4383316 4.5039673 3.2126007l0 0c0 1.7742691 -2.0164795 3.212593 -4.5039673 3.212593l0 0c-2.4874268 0 -4.5039062 -1.438324 -4.5039062 -3.212593z" fill-rule="evenodd"/><path fill="#ffff00" d="m931.0 407.58005l8.362183 -9.291321l8.362244 9.291321l-8.362244 9.291351z" fill-rule="evenodd"/><path fill="#00ffff" d="m17.430447 350.72177l4.503937 -9.291321l4.503937 9.291321l-4.503937 9.291351z" fill-rule="evenodd"/><path fill="#0000ff" d="m225.43045 24.359581l8.362198 -10.929134l8.362213 10.929134l-8.362213 10.929134z" fill-rule="evenodd"/><path fill="#ffffff" d="m764.7139 705.2126l0 0c0 -1.774231 2.0164795 -3.2125854 4.5039062 -3.2125854l0 0c2.4874878 0 4.5039673 1.4383545 4.5039673 3.2125854l0 0c0 1.774292 -2.0164795 3.2125854 -4.5039673 3.2125854l0 0c-2.4874268 0 -4.5039062 -1.4382935 -4.5039062 -3.2125854z" fill-rule="evenodd"/><path fill="#00ffff" d="m353.43045 688.35956l8.362213 -10.929138l8.362183 10.929138l-8.362183 10.929138z" fill-rule="evenodd"/><path fill="#0000ff" d="m33.430447 617.7139l8.3622055 -12.283508l8.362202 12.283508l-8.362202 12.283447z" fill-rule="evenodd"/><path fill="#ffffff" d="m652.7139 49.212597l0 0c0 -1.7742691 2.0164795 -3.212597 4.5039062 -3.212597l0 0c2.4874878 0 4.5039673 1.4383278 4.5039673 3.212597l0 0c0 1.7742691 -2.0164795 3.2126007 -4.5039673 3.2126007l0 0c-2.4874268 0 -4.5039062 -1.4383316 -4.5039062 -3.2126007z" fill-rule="evenodd"/></g></svg>